<svg className={className} fill='currentColor' id="Capa_1" data-name="Capa 1" xmlns="http://www.w3.org/2000/svg" viewBox="0 0 1021.2 507.27">
  <path d="m99.65,40.91h0C44.62,40.91,0,85.53,0,140.56v99.65h83.51v-99.08c0-8.9,7.22-16.12,16.12-16.12s16.12,7.22,16.12,16.12v99.08h83.56v-99.65c0-55.04-44.62-99.65-99.65-99.65Z"/>
  <path d="m373.6,152.18c14.77,0,27.31-11.46,27.93-26.22.02-.48.03-.95.03-1.43v-6.77c0-42.44-34.41-76.85-76.85-76.85h-17.37c-55.21,0-101.22,45.17-100.83,100.38.2,27.23,11.31,51.87,29.19,69.74,18.03,18.03,42.94,29.19,70.46,29.19h95.4v-80.84h-98.07c-9.46,0-17.52-7.41-17.74-16.87,0-.37,0-.75,0-1.13.33-10.42,8.78-19.07,19.19-19.61,11.7-.61,21.36,7.39,19.49,18.79-.6,3.68-4.05,8.73-6.76,11.62h55.92Z"/>
  <polygon points="638.49 238.65 580.91 143.67 635.91 48.7 635.89 47.13 549 47.13 522.33 95.56 496.47 47.13 409.42 47.13 409.29 50.79 463.09 143.67 404.56 240.22 496.47 240.22 523.15 191.79 549 240.22 638.51 240.22 638.49 238.65"/>
  <path d="m785.56,126.55V47.13h-54.93c-2.44,0-4.42-1.98-4.42-4.42V0h-82.91v157.31c0,1.1.04,2.18.08,3.27h-.08c0,43.98,35.66,79.64,79.64,79.64h62.61v-79.64h-55.35c-2.21,0-4-1.79-4-4v-26.04c0-2.21,1.79-4,4-4h55.35Z"/>
  <path d="m405.57,407.13c-1.08,9.21-8.9,16.36-18.41,16.36-10.24,0-18.55-8.3-18.55-18.55s8.3-18.55,18.55-18.55c8.81,0,16.18,6.16,18.06,14.4h82.53c-2.23-53.63-46.41-96.43-100.59-96.43s-100.69,45.08-100.69,100.69,45.08,100.69,100.69,100.69,99.56-43.97,100.66-98.62h-82.26Z"/>
  <path d="m609.62,308.51v99.22c0,8.65-7.01,15.67-15.67,15.67h0c-8.65,0-15.67-7.01-15.67-15.67v-99.22h-84.21v99.38c0,54.89,44.49,99.38,99.38,99.38h0c54.89,0,99.38-44.49,99.38-99.38v-99.38h-83.22Z"/>
  <path d="m771.76,308.51c-39.61,0-71.73,32.11-71.73,71.73v115.84c0,2.21,1.79,4,4,4h74.91c2.21,0,4-1.79,4-4v-103.27c0-2.21,1.79-4,4-4h29.96c2.21,0,4-1.79,4-4v-72.29c0-2.21-1.79-4-4-4h-45.15Z"/>
  <path d="m993.22,391.85h-20.46v-.03h-31.93c2.92,3.73,4.58,8.48,4.31,13.64-.54,10.31-8.94,18.75-19.26,19.3-11.79.63-21.54-8.73-21.54-20.38s9.14-20.41,20.41-20.41c.45,0,.89.04,1.34.07v-.07h95.1v-75.46h-125.24c-37.35,0-67.64,30.28-67.64,67.64v13.37c0,15.02,12.17,27.19,27.19,27.19h8.74c2.21,0,4,1.79,4,4h0c0,1.42-1.15,2.57-2.57,2.57h-37.36v76.8h125.24c37.35,0,67.64-30.28,67.64-67.64v-12.6c0-15.45-12.53-27.98-27.98-27.98Z"/>
</svg>