<?xml version="1.0" encoding="UTF-8"?>
<svg id="OBJECTS" xmlns="http://www.w3.org/2000/svg" xmlns:xlink="http://www.w3.org/1999/xlink" viewBox="0 0 1895.91 1548.15">
  <defs>
    <style>
      .cls-1 {
        fill: url(#linear-gradient-2);
      }

      .cls-2 {
        fill: #29bfd4;
      }

      .cls-3 {
        fill: #fff;
      }

      .cls-4 {
        letter-spacing: -.07em;
      }

      .cls-5 {
        letter-spacing: -.03em;
      }

      .cls-6 {
        fill: #f8cba3;
      }

      .cls-7 {
        font-size: 332.68px;
      }

      .cls-7, .cls-8 {
        font-family: Montserrat-ExtraBold, 'Montserrat ExtraBold';
        font-weight: 700;
      }

      .cls-9 {
        fill: #75d7e6;
      }

      .cls-10 {
        letter-spacing: -.03em;
      }

      .cls-11 {
        fill: #e0e0e0;
      }

      .cls-12 {
        fill: #401a4c;
      }

      .cls-13 {
        fill: #2abfd4;
      }

      .cls-14 {
        font-size: 57.03px;
      }

      .cls-14, .cls-15 {
        font-family: Inter-Regular, Inter;
        font-variation-settings: 'wght' 400, 'slnt' 0;
      }

      .cls-16 {
        letter-spacing: -.07em;
      }

      .cls-17 {
        letter-spacing: 0em;
      }

      .cls-15 {
        font-size: 22.62px;
      }

      .cls-18 {
        fill: #e669ad;
      }

      .cls-19 {
        fill: #138494;
      }

      .cls-20 {
        fill: #ccb6f3;
      }

      .cls-21 {
        letter-spacing: -.03em;
      }

      .cls-22 {
        fill: #8049e2;
      }

      .cls-23 {
        letter-spacing: -.03em;
      }

      .cls-24 {
        stroke: #ccb6f3;
        stroke-width: 4.16px;
      }

      .cls-24, .cls-25 {
        fill: none;
        stroke-miterlimit: 10;
      }

      .cls-26 {
        fill: #e2469a;
      }

      .cls-8 {
        font-size: 131.96px;
      }

      .cls-27 {
        fill: #4b4be3;
      }

      .cls-28 {
        fill: url(#linear-gradient-3);
      }

      .cls-29 {
        fill: #652687;
      }

      .cls-25 {
        stroke: #4b4be3;
        stroke-width: 23.58px;
      }

      .cls-30 {
        fill: url(#linear-gradient);
      }

      .cls-31 {
        fill: #25adbf;
      }
    </style>
    <linearGradient id="linear-gradient" x1="1283.56" y1="547.89" x2="1670.27" y2="547.89" gradientUnits="userSpaceOnUse">
      <stop offset="0" stop-color="#e2469a"/>
      <stop offset="1" stop-color="#e669ad"/>
    </linearGradient>
    <linearGradient id="linear-gradient-2" x1="1864.92" y1="1236.26" x2="1326.3" y2="1236.26" gradientUnits="userSpaceOnUse">
      <stop offset="0" stop-color="#2abfd4"/>
      <stop offset=".37" stop-color="#14aabb"/>
      <stop offset=".73" stop-color="#059caa"/>
      <stop offset="1" stop-color="#0097a5"/>
    </linearGradient>
    <linearGradient id="linear-gradient-3" x1="0" y1="1236.26" x2="538.62" y2="1236.26" xlink:href="#linear-gradient-2"/>
  </defs>
  <path class="cls-20" d="m74.67,1319.52s-147.85-423.33-13.57-487.28c134.28-63.95-27.91-471.19,231.23-543.46C551.49,216.49,437.62-95.47,877.81,32.22c440.19,127.68,468.92-218.36,674.86,124.44,205.93,342.8,109.36,510.01,260.25,557.28,150.89,47.27,72.43,477.75-48.28,605.58H74.67Z"/>
  <path class="cls-11" d="m1808.58,1354.49c0,20.05-394.96,54.45-882.16,54.45s-882.16-34.4-882.16-54.45,394.96-36.3,882.16-36.3,882.16,16.25,882.16,36.3Z"/>
  <path class="cls-3" d="m738.09,295.86h187.82s2.95-34.66-37.11-23.05c-40.06,11.61-13.68-39.26-83.48-36.09-69.14,3.14-105.38,0-67.23,59.14Z"/>
  <g>
    <path class="cls-18" d="m1313.41,645.41c148.48,0,198.04-233.8,130.15-196.66-67.89,37.14,66.47-237.13-50.13-182.75s35.58-170.07-109.9-167.52c-145.48,2.55-19.93,199.89-108.99,178.99-89.06-20.9,55.62,222.43-32.49,189.5-88.12-32.93-69.64,178.44,171.37,178.44Z"/>
    <path class="cls-12" d="m1287.9,118.96c1.53,263.14,1.55,558.32,0,821.46-1.55-263.14-1.53-558.32,0-821.46h0Z"/>
    <path class="cls-12" d="m1394.19,307.79c-4.13,24.66-18.08,47.95-38.8,62.18-19.49,13.5-44.25,17.66-67.49,15.37,18,.26,36.19-2.1,52.58-9.65,27.54-12.22,46.63-39.04,53.71-67.9h0Z"/>
    <path class="cls-12" d="m1283.56,346.68c-29.87,3.78-67.79-1.37-87.02-27-1.08-1.58-2.74-4.06-3.59-5.77-1.18-1.93-1.95-4.07-2.87-6.12,2.15,3.96,4.48,7.78,7.37,11.18,20.4,23.96,56.36,28.38,86.11,27.72h0Z"/>
    <path class="cls-12" d="m1330.38,200.52c1.74,25.62-3.19,67.43-30.04,78.8-4,1.54-8.22,2.33-12.43,2.38,4.17-.58,8.25-1.59,11.96-3.43,24.88-12.33,29.32-52.84,30.51-77.74h0Z"/>
    <path class="cls-12" d="m1287.9,225.05c-7.13,4.37-17.24,5.45-24.51.45-7.29-4.94-10.76-13.65-12.42-21.96-1.1-5.53-1.49-11.15-1.36-16.74.85,5.52,1.74,11,3.15,16.32,4.59,18.41,15.7,29.13,35.14,21.93h0Z"/>
    <path class="cls-12" d="m1435.14,488.02c-12.72,37.06-42.26,68.1-78.36,83.25-14.36,6.17-29.93,9.8-45.46,11.4-1.74.24-4.09.36-5.85.45-5.64.41-11.94.43-17.56.35,5.45-.3,12.07-.57,17.49-1.24,1.77-.16,4.08-.41,5.79-.72,19.19-2.5,38.06-8.3,55.19-17.3,30.73-16.46,55.59-43.88,68.77-76.2h0Z"/>
    <path class="cls-12" d="m1287.9,545.91c-42.63,5.49-95.09-2.45-123.03-38.26-1.39-1.77-2.69-3.84-4-5.67-.94-1.45-2.59-4.51-3.48-5.99,4.21,6.43,8.87,12.52,14.51,17.72,29.73,28.17,76.58,34.41,116.01,32.21h0Z"/>
  </g>
  <g>
    <path class="cls-30" d="m1446.52,821.37c-151.19,0-201.65-233.8-132.52-196.66,69.13,37.14-67.68-237.13,51.04-182.75,118.72,54.38-36.23-170.07,111.91-167.52,148.14,2.55,20.29,199.89,110.98,178.99,90.69-20.9-56.64,222.43,33.08,189.5,89.72-32.93,70.91,178.44-174.49,178.44Z"/>
    <path class="cls-12" d="m1472.49,294.92c1.53,263.14,1.55,558.32,0,821.46-1.55-263.14-1.53-558.32,0-821.46h0Z"/>
    <path class="cls-12" d="m1364.27,483.75c6.99,28.13,25.52,53.92,51.9,66.65,17.46,8.42,37,11.22,56.33,10.89-15.15,1.45-30.82.29-45.48-4.21-1.58-.57-5.03-1.73-6.53-2.34-1.06-.46-3.19-1.37-4.25-1.83-4.79-2.22-9.73-5.01-14.02-8.07-20.12-14.19-33.8-36.93-37.95-61.09h0Z"/>
    <path class="cls-12" d="m1476.92,522.65c30.08.65,66.73-3.67,87.62-27.62,2.95-3.42,5.37-7.27,7.56-11.28-1.71,4.23-3.96,8.26-6.66,12-19.72,25.63-58.34,30.66-88.52,26.9h0Z"/>
    <path class="cls-12" d="m1429.24,376.48c1.16,24.64,5.52,62.38,28.44,76.37,4.53,2.6,9.58,4.15,14.82,4.8-4.23-.04-8.48-.81-12.51-2.31-27.34-11.25-32.49-52.9-30.74-78.87h0Z"/>
    <path class="cls-12" d="m1472.49,401.01c19.59,7.09,30.99-3.19,35.76-21.8,1.45-5.35,2.36-10.87,3.22-16.44.12,5.63-.28,11.29-1.43,16.87-1.72,8.37-5.34,17.13-12.8,21.96-7.41,4.88-17.53,3.75-24.75-.58h0Z"/>
    <path class="cls-12" d="m1322.58,663.98c12.79,30.79,36.29,57.06,65.22,73.54,18.72,10.7,39.79,17.21,61.13,19.98,1.75.32,4.09.53,5.86.71,3.36.36,8.42.83,11.78.91,0,0,5.91.32,5.91.32-5.67.08-12.07.07-17.77-.34-19.75-1.19-39.48-5.79-57.47-14.09-34.15-15.74-62.22-45.46-74.68-81.03h0Z"/>
    <path class="cls-12" d="m1472.49,721.87c39.4,2.15,85.61-3.74,116.32-30.49,6.39-5.7,11.88-12.24,16.57-19.43-1.61,2.66-3.03,5.48-4.94,7.96-.84,1.17-1.86,2.73-2.77,3.8-28.6,35.87-82.1,43.63-125.19,38.16h0Z"/>
  </g>
  <path class="cls-1" d="m1336.77,1344.17h523.89s29.29-90.53-65.89-60.62c-46.54,14.62,37.3-127.48-75.66-100.64-78.6,18.68-106.16-55.73-163.51-54.56-150.77,3.08-48.81,122.46-140.74,111.55-74.59-8.85-106.98,50.92-78.1,104.27Z"/>
  <path class="cls-28" d="m10.47,1344.17h523.89s29.29-90.53-65.89-60.62c-46.54,14.62,37.3-127.48-75.66-100.64-78.6,18.68-106.16-55.73-163.51-54.56-150.77,3.08-48.81,122.46-140.74,111.55-74.59-8.85-106.98,50.92-78.1,104.27Z"/>
  <g>
    <path class="cls-26" d="m1476.74,1353.37c-32.99-86.82-10.42-161.48,32.99-128.49s0-57.3,0-100.71,29.52-41.67,48.62-17.36c19.1,24.31,29.52-31.25,46.88-76.4s81.61-41.67,78.14,12.15c-3.47,53.83-52.09,65.98-22.57,79.87,29.52,13.89,52.09,46.88-6.95,78.14-59.04,31.25-27.78,62.51-6.95,65.98,20.84,3.47,48.62,41.67-22.57,86.82h-147.59Z"/>
    <path class="cls-12" d="m1638.23,1049.51c-25.49,53.87-44.67,110.65-60.54,168.03-4.94,17.52-10.4,40-14.39,57.83-2.71,11.09-5.89,27.6-8.19,38.89-.52,2.35-1.49,7.37-1.89,9.76-1.17,6.6-4.06,22.66-5.28,29.36,1.38-9.35,3.75-25.32,5.15-34.43,9.24-53.61,22.31-107.59,39.66-159.17,4.97-15.28,11.07-31.8,16.9-46.8,8.57-21.43,17.76-43.09,28.59-63.47h0Z"/>
    <path class="cls-12" d="m1540.12,1130.25c2.67,23.36,16.23,48.14,40.31,54.21,14.56,3.81,30.05.6,43.81-4.83,0,0,4.2-1.68,4.2-1.68l4.12-1.9c2.43-1.01,5.77-2.85,8.14-4.03,2.41-1.22,5.54-3.16,7.95-4.43-10,6.88-20.75,12.86-32.37,16.79-17.56,6.03-37.89,6.09-53.1-5.75-14.71-11.43-22.26-30.12-23.05-48.37h0Z"/>
    <path class="cls-12" d="m1497.58,1263.95c16.6,61.02,67.77,66.92,120.53,47.89,6.83-2.29,13.46-5.15,20.12-7.95-3.24,1.59-6.43,3.31-9.75,4.74-2.47,1.15-7.44,3.29-9.97,4.3-52.75,21.35-107.37,14.04-120.93-48.97h0Z"/>
  </g>
  <g>
    <path class="cls-26" d="m373.76,1343.34c27.09-71.3,8.56-132.62-27.09-105.53-35.65,27.09,0-47.06,0-82.71s-24.24-34.22-39.93-14.26c-15.69,19.96-24.24-25.67-38.5-62.74-14.26-37.08-67.02-34.22-64.17,9.98,2.85,44.21,42.78,54.19,18.54,65.6-24.24,11.41-42.78,38.5,5.7,64.17,48.48,25.67,22.82,51.34,5.7,54.19-17.11,2.85-39.93,34.22,18.54,71.3h121.21Z"/>
    <path class="cls-12" d="m241.14,1093.79c10.2,19.15,18.76,39.44,26.55,59.7,3.78,9.73,7.73,20.91,10.99,30.8,14.28,42.37,24.99,86.7,32.48,130.76,1.36,9.17,2.86,19.13,4.14,28.29-1.45-7.67-3.01-16.35-4.41-24.1-.34-2.03-1.13-6.01-1.57-8.01-1.92-9.36-4.54-22.79-6.79-31.92-3.3-14.66-7.79-33.08-11.85-47.48-13.05-47.11-28.76-93.74-49.53-138.05h0Z"/>
    <path class="cls-12" d="m321.71,1160.1c-.52,15.04-6.71,30.46-18.81,39.89-12.46,9.76-29.39,9.74-43.78,4.72-9.56-3.26-18.37-8.23-26.54-13.94,0,0,3.28,1.8,3.28,1.8,5.86,3.33,12.23,6.26,18.54,8.65,10.83,3.92,22.84,6.21,34.15,3.21,19.72-4.98,30.79-25.19,33.15-44.32h0Z"/>
    <path class="cls-12" d="m356.65,1269.9c-8.5,42.56-42.73,56.58-82.4,45.96-8.6-2.22-17.08-5.48-25.12-9.22-2.72-1.19-5.33-2.62-7.98-3.94,10.91,4.65,22.07,8.71,33.54,11.38,39.43,9.27,70.65-3.28,81.96-44.17h0Z"/>
  </g>
  <path class="cls-11" d="m1549.19,1526.3s241.87,19.25,143.13-106.09c5.89,45.68-56.75,108.16-143.13,106.09Z"/>
  <path class="cls-11" d="m1329.43,1536.36c-204.63-14.14-210.2-74.17-169.19-111.56,10.96,33.33,11.66,77.41,169.19,111.56Z"/>
  <path class="cls-11" d="m1449.2,1439.22c-157.17-8.74-223.48,48.8-60.67,50.81,162.81,2.01,377.03-33.21,60.67-50.81Z"/>
  <path class="cls-11" d="m1434.52,1379.7s223.74-34.21,257.8,45.1c-20.27-61.53-117.08-93.06-257.8-45.1Z"/>
  <path class="cls-11" d="m434.56,1336.63s-235.37-4.64-299.75,79.87c-64.38,84.5,86.51,63.02,227.74,50.59,41.13-32.22,312.14-7.5,243.73,29.33-79.5,42.81-216.96,16.56-238.49-12.56-264.87,17.66-311.4-21.64-274.2-69.65,37.2-48.01,204.13-104.29,340.97-77.58Z"/>
  <path class="cls-25" d="m227.78,1474.31c-217.29,5.28-158.94-175.07,243.39-147.12"/>
  <path class="cls-25" d="m1534.95,843.07c166.17,65.97,246.44,132.41,242.06,259.7-4.03,117.26-82.41,289.61-465.5,281.09-237.4-5.28-180.65,152.5,131.7,152.5s429.78-247.59-271.15-232.22"/>
  <g>
    <rect class="cls-12" x="292.9" y="553.93" width="1252.79" height="827.79" rx="81.33" ry="81.33"/>
    <rect class="cls-3" x="376.04" y="590.08" width="1086.51" height="755.49"/>
    <text class="cls-26" transform="translate(663.31 1053.13)"><tspan class="cls-7"><tspan x="0" y="0">404</tspan></tspan><tspan class="cls-14"><tspan class="cls-4" x="5.22" y="68.44">P</tspan><tspan class="cls-21" x="37.22" y="68.44">A</tspan><tspan x="73.83" y="68.44">GE N</tspan><tspan class="cls-23" x="209.29" y="68.44">O</tspan><tspan x="251.01" y="68.44">T FOUND</tspan></tspan></text>
    <path class="cls-29" d="m349.83,967.82c0,11.23-9.1,20.33-20.33,20.33s-20.33-9.1-20.33-20.33,9.1-20.33,20.33-20.33,20.33,9.1,20.33,20.33Z"/>
    <path class="cls-29" d="m1503.21,1056.39h0c-11.43,0-20.78-9.35-20.78-20.78v-135.55c0-11.43,9.35-20.78,20.78-20.78h0c11.43,0,20.79,9.35,20.79,20.78v135.55c0,11.43-9.35,20.78-20.79,20.78Z"/>
  </g>
  <g>
    <path class="cls-3" d="m527.38,447.38h-105.38c-8.68,0-15.72,7.04-15.72,15.72v29.91h-236.07v275.65h372.88v-305.56c0-8.68-7.04-15.72-15.72-15.72Z"/>
    <rect class="cls-26" x="181.61" y="504.3" width="350.08" height="252.7"/>
    <text class="cls-3" transform="translate(255.11 669.05)"><tspan class="cls-8"><tspan x="0" y="0">404</tspan></tspan><tspan class="cls-15"><tspan class="cls-16" x="2.07" y="27.15">P</tspan><tspan class="cls-10" x="14.76" y="27.15">A</tspan><tspan class="cls-17" x="29.29" y="27.15">GE N</tspan><tspan class="cls-5" x="83.02" y="27.15">O</tspan><tspan x="99.57" y="27.15">T FOUND</tspan></tspan></text>
    <rect class="cls-20" x="416.95" y="486.19" width="30.54" height="5.84"/>
    <rect class="cls-20" x="457.04" y="461.48" width="30.54" height="30.54"/>
    <line class="cls-24" x1="497.12" y1="492.03" x2="527.67" y2="461.48"/>
    <line class="cls-24" x1="497.12" y1="461.48" x2="527.67" y2="492.03"/>
  </g>
  <g>
    <path class="cls-3" d="m1181.46,325.55h-105.38c-8.68,0-15.72,7.04-15.72,15.72v29.91h-236.07v275.65h372.88v-305.56c0-8.68-7.04-15.72-15.72-15.72Z"/>
    <rect class="cls-13" x="835.69" y="382.47" width="350.08" height="252.7"/>
    <text class="cls-3" transform="translate(909.19 547.23)"><tspan class="cls-8"><tspan x="0" y="0">404</tspan></tspan><tspan class="cls-15"><tspan class="cls-16" x="2.07" y="27.15">P</tspan><tspan class="cls-10" x="14.76" y="27.15">A</tspan><tspan class="cls-17" x="29.29" y="27.15">GE N</tspan><tspan class="cls-5" x="83.02" y="27.15">O</tspan><tspan x="99.57" y="27.15">T FOUND</tspan></tspan></text>
    <rect class="cls-20" x="1071.03" y="364.37" width="30.54" height="5.84"/>
    <rect class="cls-20" x="1111.12" y="339.66" width="30.54" height="30.54"/>
    <line class="cls-24" x1="1151.21" y1="370.2" x2="1181.75" y2="339.66"/>
    <line class="cls-24" x1="1151.21" y1="339.66" x2="1181.75" y2="370.2"/>
  </g>
  <g>
    <path class="cls-3" d="m778.92,54.73h-105.38c-8.68,0-15.72,7.04-15.72,15.72v29.91h-236.07v275.65h372.88V70.45c0-8.68-7.04-15.72-15.72-15.72Z"/>
    <rect class="cls-27" x="433.15" y="111.65" width="350.08" height="252.71"/>
    <text class="cls-13" transform="translate(506.65 276.41)"><tspan class="cls-8"><tspan x="0" y="0">404</tspan></tspan><tspan class="cls-15"><tspan class="cls-16" x="2.07" y="27.15">P</tspan><tspan class="cls-10" x="14.76" y="27.15">A</tspan><tspan class="cls-17" x="29.29" y="27.15">GE N</tspan><tspan class="cls-5" x="83.02" y="27.15">O</tspan><tspan x="99.57" y="27.15">T FOUND</tspan></tspan></text>
    <rect class="cls-20" x="668.49" y="93.55" width="30.54" height="5.84"/>
    <rect class="cls-20" x="708.58" y="68.84" width="30.54" height="30.54"/>
    <line class="cls-24" x1="748.67" y1="99.38" x2="779.21" y2="68.84"/>
    <line class="cls-24" x1="748.67" y1="68.84" x2="779.21" y2="99.38"/>
  </g>
  <circle class="cls-31" cx="1611.35" cy="872.27" r="36.49"/>
  <path class="cls-25" d="m184.86,1181.93c46.44,142.1,352.27,284.86,42.92,292.38"/>
  <path class="cls-25" d="m394.28,854.87c-171.75,74.84-250.81,200.42-209.42,327.06"/>
  <circle class="cls-31" cx="332.52" cy="887.59" r="36.49"/>
  <polygon class="cls-6" points="1357.36 954.44 1363.89 936.48 1374.23 936.48 1374.23 954.44 1357.36 954.44"/>
  <path class="cls-27" d="m1425.83,1055.5s-38.53-29.39-45.07-39.19,0-64.59,0-64.59l-28.31-8.71s-9.8,64.59-4.35,84.19c5.44,19.6,50.08,59.88,50.08,59.88l27.65-31.57Z"/>
  <path class="cls-6" d="m1369.65,941.58s13.43,6.2,15.97-7.24l2.9-13.44c-.57-.48-1.42-1.02-2.31-.86-1.6.29-2.17,2.67-3.81,6.12-.69,1.44-1.74,3.47-3.31,5.79,1.27-6.95,2.57-13.99,2.97-21.06.04-.69.05-10.25-2.72-6.53-.32.44-.47.98-.61,1.5-1.56,5.98-3.14,11.95-4.72,17.92,2.25-14.44,2.41-21.95.5-22.53-1.53-.46-2.15,1.64-2.38,2.73-1.3,6.26-2.61,12.53-3.91,18.79.09-2.03,1.29-16.02-1.46-16.49-2.06-.35-1.81,4.72-1.86,5.86l-.5,11.33c-.25-2.66-.41-5.31-.81-7.95-.22-1.44-.42-3.04-1.02-4.39-.72-1.63-1.76-1.85-2.1.33-.81,5.19-.62,10.6.16,15.78.59,3.91,2.13,8.76,4.13,14.33"/>
  <path class="cls-2" d="m1563.42,1423.35c-.31,4.15-1.75,7.98-4.99,11.27-4.32,3.29-9.97-1.51-13.83,1.38l2.11,2.56c4.4,5.35,3.72,13.24-1.54,17.76l-5.36,4.61,2.35,6.87,17.85-6.1c6.89-2.36,11.75-8.55,12.41-15.8l1.57-17.36-10.57-5.19Z"/>
  <path class="cls-6" d="m1558.44,1434.62c3.24-3.29,4.68-7.12,4.99-11.27l-19.84-9.73-8.64,10.62,9.66,11.75c3.85-2.88,9.51,1.92,13.83-1.38Z"/>
  <path class="cls-2" d="m1389.37,1458.94c-3.86,1.56-7.93,1.97-12.32.52-4.86-2.41-3.07-9.61-7.36-11.79l-1.36,3.02c-2.85,6.32-23.15,11.61-30.06,12.13l-7.05.53-2.19,6.92,17.99,5.68c6.95,2.19,19.33,3.66,26.12,1.04l16.26-6.28-.03-11.78Z"/>
  <path class="cls-6" d="m1377.05,1459.46c4.39,1.45,8.46,1.04,12.32-.52l-.06-22.09-13.35-3.04-6.26,13.87c4.29,2.18,2.49,9.37,7.36,11.79Z"/>
  <polygon class="cls-22" points="1440.79 1215.3 1413.32 1322.71 1398.39 1447.33 1364.62 1442.68 1367.83 1325.88 1382.32 1195.73 1437.63 1195.73 1440.79 1215.3"/>
  <polygon class="cls-22" points="1416.04 1209.13 1447.41 1343.29 1530.78 1435.42 1560.67 1413.91 1495.09 1323.55 1478.41 1244.78 1474.38 1200.59 1416.04 1209.13"/>
  <polygon class="cls-22" points="1379.68 1198.12 1378.8 1237.39 1454.25 1244.39 1477.43 1235.86 1473.33 1200.84 1379.68 1198.12"/>
  <polygon class="cls-6" points="1549.86 956.3 1555.31 938.33 1564.56 938.33 1564.56 956.3 1549.86 956.3"/>
  <path class="cls-27" d="m483.81,981.84c9.8,15.79,22.31,49.1,27.49,33.81,8.98,11.92-11.16,75.06-81.92,35.87,20.68-11.43,15.79-74.03,54.43-69.67Z"/>
  <path class="cls-6" d="m570.71,1474.31c-.22-.18-.43-.37-.62-.57-4.23-17.86-6.03-42.44-6.03-42.44l-12.72,8.95s2.39,19.66,2.5,36.82c5.53,3.13,11.51,1.35,16.87-2.75Z"/>
  <path class="cls-12" d="m597.46,1487.36c-.26-11.32-20.06-7.61-26.75-13.06-5.36,4.11-11.34,5.88-16.87,2.75-.16,1.36-.4,2.58-.73,3.61-3,9.39,1.47,11.08,9.96,10.41,13.4-1.07,34.5,1.45,34.38-3.71Z"/>
  <path class="cls-6" d="m408.73,1462.68c-.05-.28-.08-.56-.09-.84,8.68-16.17,23.63-35.77,23.63-35.77l-15.45-1.74s-11.25,16.29-22.54,29.22c2.07,6.01,7.72,8.65,14.45,9.13Z"/>
  <path class="cls-12" d="m420.09,1490.19c7.31-8.64-9.96-19-11.36-27.51-6.73-.48-12.38-3.12-14.45-9.13-1.02.91-2.01,1.67-2.94,2.22-8.47,5.04-6.25,9.27.55,14.4,10.74,8.09,24.86,23.96,28.19,20.02Z"/>
  <path class="cls-26" d="m524.67,1154.71s23.28,82.33-21.63,163.53c-11.67,47.5-86.74,132.77-86.74,132.77l-19.45-11.82s19.17-35.71,25.51-50.03c6.07-13.7,14.53-37.66,28.6-52.9,7.83-8.47,11.4-20.07,10.09-31.53-5.71-50.22-2.19-112.42,8.88-131.27"/>
  <path class="cls-26" d="m499.78,1178.7l-42.09-8.71s-27.07,27.56-11.32,66.59c14.61,36.2,41.49,64.67,66.03,87.56,6.77,6.32,9.42,5.66,10.65,14.84,4.47,33.33,14.9,61.8,19.18,90.39l4.87,32.5,24.09-3.53-14.44-140.11c-17.42-55.88-57.7-109.77-57.7-109.77"/>
  <path class="cls-6" d="m493.14,1056.41l48.97-31.55s-5.95-8.41-8.22-30.5c-2.9-28.31-10.09-47.88-10.09-47.88l5.99-6.53s28.06,58.73,33.5,83.23c0,18.87-25.04,33.79-63.61,55.01-8.71-6.53-6.53-21.77-6.53-21.77Z"/>
  <path class="cls-22" d="m442.44,1067.66s20.32,71.13,15.24,102.33c29.03,21.05,66.04,10.16,73.3-1.45-5.81-49.35-10.52-58.79-10.52-58.79,7.26-8.71,10.52-25.76-4.72-38.47-7.72-6.43-9.08-23.6-9.08-23.6,0,0-76.93-5.43-64.22,19.97Z"/>
  <path class="cls-6" d="m530.16,951.54s-13.43,6.2-15.97-7.24l-2.9-13.44c.57-.48,1.42-1.02,2.31-.86,1.6.29,2.17,2.67,3.81,6.12.69,1.44,1.74,3.47,3.31,5.79-1.27-6.95-2.57-13.99-2.97-21.06-.04-.69-.05-10.25,2.72-6.53.32.44.47.98.61,1.5,1.56,5.98,3.14,11.95,4.72,17.92-2.25-14.44-2.41-21.95-.5-22.53,1.53-.46,2.15,1.64,2.38,2.73,1.3,6.26,2.61,12.53,3.91,18.79-.09-2.03-1.29-16.02,1.46-16.49,2.06-.35,1.81,4.72,1.86,5.86.17,3.78.33,7.55.5,11.33.25-2.66.41-5.31.81-7.95.22-1.44.42-3.04,1.02-4.39.72-1.63,1.76-1.85,2.1.33.81,5.19.62,10.6-.16,15.78-.59,3.91-2.13,8.76-4.13,14.33"/>
  <polygon class="cls-31" points="612.74 940 657.64 889.2 578.14 671.82 533.25 722.61 612.74 940"/>
  <path class="cls-9" d="m479.92,692.66c-27.88,5.92-53.72,16.79-76.32,32.16l-50.57,34.34-44.9,50.8,50.57-34.34h0c22.6-15.37,48.44-26.24,76.32-32.16l98.22-20.84,44.9-50.8-98.22,20.84Z"/>
  <path class="cls-13" d="m435.02,743.46c-27.88,5.92-53.72,16.79-76.32,32.16l-50.57,34.34c-12.61,8.58-17.13,24.9-11.28,40.88l26.52,72.52c5.84,15.98,20.79,28.17,37.4,30.55l66.59,9.47c29.78,4.26,59.28,3.39,87.15-2.53l98.22-20.84-79.5-217.39-98.22,20.84Z"/>
  <path class="cls-12" d="m464.34,944.26c-13.76.08-27.48-1.32-41.08-3.38-8.62-1.21-31.93-4.49-40.86-5.74-2.4-.34-14.86-2.09-17.02-2.39-8.1-.75-15.54-5.65-19.78-12.56-2.13-3.4-3.74-9.01-5.24-12.75-4.73-12.87-14.39-38.71-19.13-51.57,0,0-4.77-12.92-4.77-12.92-1.89-5.26-1.46-12.24,3.57-15.65,0,0,.71-.49.71-.49,0,0,2.84-1.94,2.84-1.94,10.18-6.98,29.32-20.11,39.69-27.22,7.55-5.21,15.22-10.39,23.33-14.73,16.22-8.78,33.72-15.12,51.74-19.05,17.82-3.85,63.3-13.39,81.64-17.25,18.2,49.54,45.76,127.05,63.97,177.21,0,0,.11.31.11.31,0,0-.32.07-.32.07,0,0-59.37,12.42-59.37,12.42-19.7,4.49-39.75,7.91-60.03,7.65h0Zm0,0c20.29.19,40.29-3.3,59.98-7.86,0,0,59.3-12.76,59.3-12.76.09,2.05-32.9-88-32.82-87.51-8.21-21.87-24.42-66.02-32.51-87.92,0,0,1.22.67,1.22.67-18.1,3.87-63.24,13.56-80.69,17.22-17.83,3.82-35.16,10.03-51.23,18.66-13.99,7.49-32.55,21.11-46.03,29.88-3.67,2.49-13.55,9.09-17.12,11.51-1.43,1.06-4.19,2.54-5.32,3.98-2.82,3.38-2.73,8.36-1.37,12.4,0,0,4.64,12.92,4.64,12.92,5.82,15.97,15.2,42.29,20.98,58.22,2.58,8.74,9.79,15.98,18.7,18.14,4.42.86,15.77,2.31,20.38,3.04,9,1.29,32.13,4.64,40.83,5.89,13.59,2.11,27.29,3.56,41.06,3.53h0Z"/>
  <path class="cls-9" d="m607.18,873.59c2.53,6.98,5.89,11.01,8.28,10.42.35-.08.7-.17,1.05-.26,25.9-6.43,126.94-30.69,147.58-35.46,12.49-2.89,33.49-8.53,30.94-25.38-1.72-11.4-15.22-14.38-24.75-12.31-14.44,3.14-140.53,34.3-163.13,39.91-.56.14-1.06.53-1.49,1.19-2.28,3.51-1.6,13.31,1.52,21.9Z"/>
  <path class="cls-9" d="m566.15,757.11c2.53,6.98,5.89,11.01,8.28,10.42.35-.08.7-.17,1.05-.26,25.9-6.43,126.94-30.69,147.58-35.46,12.49-2.89,33.49-8.53,30.94-25.38-1.72-11.4-15.22-14.38-24.75-12.31-14.44,3.14-140.53,34.3-163.13,39.91-.56.14-1.06.53-1.49,1.19-2.28,3.51-1.6,13.31,1.52,21.9Z"/>
  <polygon class="cls-31" points="1329.43 928.21 1284.53 877.41 1364.03 660.02 1408.92 710.82 1329.43 928.21"/>
  <path class="cls-9" d="m1462.25,680.87c27.88,5.92,53.72,16.79,76.32,32.16l50.57,34.34,44.9,50.8-50.57-34.34h0c-22.6-15.37-48.44-26.24-76.32-32.16l-98.22-20.84-44.9-50.8,98.22,20.84Z"/>
  <path class="cls-13" d="m1507.15,731.66c27.88,5.92,53.72,16.79,76.32,32.16l50.57,34.34c12.61,8.58,17.13,24.9,11.28,40.88l-26.52,72.52c-5.84,15.98-20.79,28.17-37.4,30.55l-66.59,9.47c-29.78,4.25-59.28,3.39-87.15-2.53l-98.22-20.84,79.5-217.39,98.22,20.84Z"/>
  <path class="cls-12" d="m1477.83,932.46c-20.28.26-40.33-3.15-60.03-7.65,0,0-59.37-12.42-59.37-12.42,0,0-.31-.07-.31-.07,0,0,.11-.3.11-.3,18.41-50.36,45.7-127.46,63.97-177.21,19.66,4.15,62.65,13.12,81.64,17.24,18.01,3.93,35.51,10.28,51.74,19.05,8.11,4.34,15.78,9.53,23.33,14.73,10.42,7.15,29.45,20.18,39.7,27.22,1.58,1.22,4.31,2.62,5.59,4.3,3.17,3.86,3.05,9.31,1.52,13.78,0,0-4.77,12.92-4.77,12.92-4.81,12.84-14.34,38.73-19.14,51.57-1.51,3.73-3.09,9.34-5.24,12.75-4.24,6.91-11.68,11.81-19.78,12.56-2.05.23-14.66,2.1-17.02,2.39-9.04,1.27-32.12,4.51-40.86,5.74-13.59,2.06-27.31,3.46-41.08,3.38h0Zm0,0c13.77.03,27.47-1.42,41.06-3.53,8.61-1.24,31.92-4.6,40.83-5.89,4.63-.75,15.91-2.14,20.38-3.04,8.91-2.17,16.12-9.39,18.7-18.14,5.76-15.91,15.21-42.27,20.98-58.22,0,0,4.64-12.92,4.64-12.92.7-2.1,1.04-4.33.88-6.5-.21-3.33-1.8-6.27-4.72-7.95,0,0-2.85-1.92-2.85-1.92-3.55-2.37-13.43-9.04-17.12-11.51-13.64-8.7-31.9-22.44-46.03-29.89-12.05-6.46-24.82-11.57-37.96-15.34-9.01-2.73-30.75-6.93-40.17-9.02,0,0-53.79-11.52-53.79-11.52l1.21-.67s-16.21,43.98-16.21,43.98c-10.39,27.97-38.18,102.93-48.91,131.83,0,0-.2-.37-.2-.37,0,0,59.3,12.76,59.3,12.76,19.69,4.56,39.7,8.05,59.98,7.86h0Z"/>
  <path class="cls-6" d="m466.94,1055.32s-31.03-43-16.87-60.42c14.15-17.42,31.23-7.06,42.83,14.71,11.6,21.76-6.95,27.75-6.95,27.75l7.19,19.05s-12.05,9.25-26.2-1.09Z"/>
  <path class="cls-27" d="m454.42,1011.24c2.02,11.43,14.7,51.16-25.04,40.27,8.71-5.99,8.71-12.52,2.72-32.66-5.99-20.14,15.24-53.34,51.71-37.01.54,4.35,12.9,21.77-29.39,29.4Z"/>
  <path class="cls-6" d="m431.19,953.48s11.69,5.4,13.9-6.3l2.53-11.7c-.5-.41-1.24-.89-2.01-.75-1.4.25-1.89,2.32-3.32,5.33-.6,1.26-1.52,3.02-2.88,5.04,1.11-6.05,2.24-12.18,2.58-18.34.03-.6.04-8.93-2.37-5.68-.28.38-.41.85-.53,1.31-1.36,5.2-2.74,10.4-4.11,15.6,1.96-12.57,2.1-19.11.43-19.62-1.33-.4-1.87,1.43-2.07,2.38-1.14,5.45-2.27,10.91-3.41,16.36.08-1.77,1.12-13.95-1.27-14.36-1.8-.31-1.58,4.11-1.62,5.1-.14,3.29-.29,6.58-.43,9.86-.22-2.31-.35-4.63-.71-6.92-.19-1.26-.37-2.65-.89-3.82-.63-1.42-1.53-1.61-1.83.29-.7,4.52-.54,9.23.14,13.74.52,3.41,1.85,7.63,3.59,12.48"/>
  <path class="cls-6" d="m1559.75,946.32s-13.43,6.2-15.97-7.24l-2.9-13.44c.57-.48,1.42-1.02,2.31-.86,1.6.29,2.17,2.67,3.81,6.12.69,1.44,1.74,3.47,3.31,5.79-1.27-6.95-2.57-13.99-2.97-21.06-.04-.69-.05-10.25,2.72-6.53.32.44.47.98.61,1.5,1.56,5.98,3.14,11.95,4.72,17.92-2.25-14.44-2.41-21.95-.5-22.53,1.53-.46,2.15,1.64,2.38,2.73,1.3,6.26,2.61,12.53,3.91,18.79-.09-2.03-1.29-16.02,1.46-16.49,2.06-.35,1.81,4.72,1.86,5.86.17,3.78.33,7.55.5,11.33.25-2.66.41-5.31.81-7.95.22-1.44.42-3.04,1.02-4.39.72-1.63,1.76-1.85,2.1.33.81,5.19.62,10.6-.16,15.78-.59,3.91-2.13,8.76-4.13,14.33"/>
  <path class="cls-6" d="m454.83,1051.71l-48.67-34.84s8.21-5.68,12.57-27.45c4.35-21.77,20.82-37.87,20.82-37.87l-8.72-7.25s-44.27,47.34-49.71,71.83c0,18.87,16.14,31.07,64.14,62.05,19.33,0,9.57-26.47,9.57-26.47Z"/>
  <path class="cls-27" d="m1404.71,1051.15l72.11-4.75s1.35,35.23,0,58.09c-1.35,22.86-15.96,77.29.6,97.98-30.26,22.86-96.66,23.95-103.2,0,9.8-67.5,3.27-139.35,30.48-151.32Z"/>
  <path class="cls-27" d="m1470.03,1048.97l52.52-16.73,20.23-78.67h26.67s-3.36,81.94-13.16,92.83c-9.8,10.89-79.48,58.09-79.48,58.09,0,0-20.95-41.37-6.79-55.52Z"/>
  <path class="cls-6" d="m1418.87,1055.5l6.96-19.6c-14.04-2.18-19.71-20.68,0-44.09,19.71-23.41,48.56-8.17,47.47,5.44-1.09,13.61-19.6,39.19-19.6,39.19l-.03,11.47s-12.49,18.47-34.8,7.58Z"/>
  <path class="cls-19" d="m1338.77,840.54c-2.07,12.52-9.74,23.8-17.12,25.2-7.38,1.4-11.69-7.62-9.62-20.14,2.07-12.52,9.74-23.8,17.12-25.2,7.38-1.4,11.69,7.62,9.62,20.14Z"/>
  <path class="cls-19" d="m1379.48,743.35c-2.07,12.52-9.74,23.8-17.12,25.2-7.38,1.4-11.69-7.62-9.62-20.14,2.07-12.52,9.74-23.8,17.12-25.2,7.38-1.4,11.69,7.62,9.62,20.14Z"/>
  <path class="cls-26" d="m1457.35,1031.13c-1.62-4.99,8.81-16.64,3.73-19.54-5.08-2.9-10.52,5.44-10.52,5.44l-4.35-1.99s6.17-6.71,4.72-13.25c-1.45-6.53,3.31-10.16,3.31-10.16,0,0-34.88.39-21.82-19.56,13.06-19.96,46.09,6.86,43.55,21.38,18.87,8.35-17.06,47.18-18.6,37.68Z"/>
  <path class="cls-12" d="m555.78,695.43c-27.62,7.44-62.25,16.11-90.17,23.05-10.04,2.32-20.01,4.89-29.77,8.22-28.67,8.94-56.41,27.41-81.39,43.87-8.73,5.55-17.41,11.15-26.18,16.64,8.48-5.92,17.04-11.72,25.56-17.57l25.69-17.38c17.09-11.77,35.9-21.06,55.56-27.78,9.82-3.39,19.9-5.9,30.01-8.21,28.03-6.63,62.67-14.79,90.68-20.84h0Z"/>
  <path class="cls-12" d="m1390.87,683.64c27.95,6.04,62.69,14.22,90.68,20.84,10.11,2.31,20.2,4.82,30.01,8.21,19.65,6.71,38.47,16.01,55.56,27.78l25.69,17.38c8.52,5.86,17.08,11.66,25.56,17.57-8.77-5.49-17.45-11.1-26.18-16.64-25.05-16.5-52.67-34.91-81.39-43.87-9.76-3.34-19.73-5.91-29.77-8.22-27.96-6.95-62.5-15.6-90.17-23.05h0Z"/>
  <path class="cls-13" d="m590.26,1386.73s-63.72-102.24,28.61-46.71c-5.55-286.68,84.92-94.22,61.44-12.47,105.03-270.77,116.63-55.22,47.81,14.66,132.27-115.19,34.11,44.53,34.11,44.53h-171.97"/>
  <path class="cls-12" d="m467.21,1038.32c6.65,1.81,13.68,1.29,19.79-1.83,1.45-.66,2.86-1.55,4.31-2.27-5.22,7.45-16.82,9.93-24.1,4.1h0Z"/>
  <path class="cls-12" d="m441.03,1009.06c13.83-2.18,35.84-4.84,40.02-20.79-.94,17.68-25.86,22.14-40.02,20.79h0Z"/>
  <path class="cls-12" d="m474,982.74c-1.45,13.28-14.39,22.5-27.41,19.37,3.08-.29,6.06-.75,8.89-1.59,8.72-2.46,15.03-9.58,18.52-17.78h0Z"/>
  <path class="cls-12" d="m460.3,987.06c-8.66,2.53-16.15,6.98-20.5,15.12.31-2.25.99-4.57,2.33-6.53,3.74-5.96,11.24-9.3,18.17-8.59h0Z"/>
  <path class="cls-12" d="m447.62,1020.46c3.1,3.33,4.45,8.11,3.94,12.59-.2,1.51-.69,3-1.51,4.28-.14-1.53-.17-2.92-.34-4.31-.43-4.12-1.49-8.44-2.08-12.56h0Z"/>
  <path class="cls-12" d="m474,1114.57c8.3-.27,23.09,2.56,27.98-5.73.7-1.22,1.12-2.62,1.44-4.08.2,1.49.09,3.04-.38,4.54-4.08,10.58-20.5,8.09-29.04,5.27h0Z"/>
  <path class="cls-12" d="m500.71,1210.74c10.01,12.71,18.75,26.4,26.03,40.85-10.02-12.7-18.74-26.41-26.03-40.85h0Z"/>
  <path class="cls-12" d="m458.45,1263.89c12.58,12.46,24.26,25.74,35.95,39.01,3.47,3.83,8.14,9.57,11.91,13.03-1.07-.65-2.6-1.82-3.57-2.65-5.63-4.79-10.75-10.15-15.83-15.51-9.95-10.78-19.77-22.08-28.46-33.88h0Z"/>
  <path class="cls-12" d="m646.17,1200.48c-.31,29.73-.33,59.48.71,89.19.91,22.23,1.94,44.55,5.89,66.48,1.32,7.29,3.05,14.54,5.98,21.39-1.66-3.32-3.12-6.78-4.19-10.35-.45-1.34-1.23-4.01-1.57-5.37-5.97-23.51-7.4-47.91-8.46-72.06-.95-29.76-.48-59.57,1.64-89.27h0Z"/>
  <path class="cls-12" d="m755.82,1210.03c-6.59,27.77-15.86,54.87-25.9,81.57-9.2,23.17-18.77,46.61-33.16,67.11-2.03,2.9-4.4,5.67-6.83,8.25,9.02-11.06,15.33-23.96,21.36-36.81,5.92-12.93,11.33-26.11,16.44-39.4,10.09-26.63,19.79-53.47,28.1-80.72h0Z"/>
  <path class="cls-12" d="m781.98,1319.68c-8.01,19.52-22.8,38.15-41.4,48.46-2.62,1.54-5.61,2.69-8.4,3.85,1.96-1.22,3.95-2.35,5.92-3.53,1.81-1.3,3.86-2.59,5.62-3.91,15.83-11.93,28.19-27.89,38.26-44.86h0Z"/>
  <path class="cls-12" d="m593.35,1339.52c11.66,3.96,21.34,17.06,27.2,27.45.86,1.66,1.71,3.32,2.48,5.03-1.21-1.43-2.33-2.92-3.45-4.39-7.95-10.01-15.46-20.89-26.23-28.08h0Z"/>
  <path class="cls-12" d="m1443.21,1029.03c-.23,7.17-9,9.82-14.89,7.86-2.92-1.02-3-1.07.14-1.15,5.66-.19,11.73-1.35,14.76-6.71h0Z"/>
  <path class="cls-12" d="m1438.66,976.48c6.12-2.61,15.49-.54,17.38,6.54-4.67-4.78-11.07-5.61-17.38-6.54h0Z"/>
  <path class="cls-12" d="m1456.04,976.27c6.21-1.44,13.42,4.15,11.29,10.77-.57-1.43-.95-2.74-1.68-3.84-2.09-3.61-5.89-5.24-9.6-6.93h0Z"/>
  <path class="cls-12" d="m1476.83,1104.49c-4.74,3.31-8.89-3.11-10.29-7.01-3.31-8.86-2.93-18.67-.62-27.7,1.18-4.5,2.94-8.84,5.25-12.83-2.84,8.67-4.77,17.58-4.69,26.68-.19,5.37,1.91,24.24,10.35,20.86h0Z"/>
  <path class="cls-12" d="m1522.56,1032.25c-.17,6.07-1.99,12.05-5.26,17.16.16-6.07,2-12.04,5.26-17.16h0Z"/>
  <path class="cls-12" d="m1429.31,1265.88c-7.84.16-16.13-2.45-21.84-7.95,7.25,2.6,14.75,4.95,21.84,7.95h0Z"/>
  <path class="cls-12" d="m1553.85,1344.16c14.36,2.97,28.39,7.52,41.75,13.58-14.37-2.96-28.39-7.53-41.75-13.58h0Z"/>
  <path class="cls-12" d="m1591.07,1333.6c11.33,1.96,22.37,5.51,32.69,10.56-11.33-1.95-22.36-5.52-32.69-10.56h0Z"/>
  <path class="cls-12" d="m268.03,1315.93c10.39,9.2,19.7,19.61,27.66,30.97-10.4-9.19-19.69-19.61-27.66-30.97h0Z"/>
  <path class="cls-12" d="m295.69,1311.69c10.2,8.76,19.35,18.73,27.16,29.68-10.21-8.75-19.34-18.74-27.16-29.68h0Z"/>
  <path class="cls-3" d="m645.29,508.81h221.5s-.27-55.75-56.51-36.64c-56.24,19.11-41.17-44.77-112.55-39.93-65.17,4.43-98.38,50.4-52.44,76.56Z"/>
  <path class="cls-3" d="m988.79,186.07h246.97s-18.99-40.7-44.72-20.35c-25.73,20.35-26.71-68.78-78.76-31.9-52.05,36.88-141.3-101.6-123.49,52.25Z"/>
</svg>