<?xml version="1.0" encoding="UTF-8"?>
<svg id="Character" xmlns="http://www.w3.org/2000/svg" xmlns:xlink="http://www.w3.org/1999/xlink" viewBox="0 0 428.81 415.16">
  <defs>
    <style>
      .cls-1, .cls-2, .cls-3, .cls-4 {
        fill: #fff;
      }

      .cls-5 {
        fill: #ff94da;
      }

      .cls-6 {
        font-family: AcuminConcept-Bold, 'Acumin Variable Concept';
        font-size: 151.1px;
        font-variation-settings: 'wght' 700, 'wdth' 100, 'slnt' 0;
        font-weight: 700;
      }

      .cls-6, .cls-7, .cls-8 {
        fill: #6d326a;
      }

      .cls-9, .cls-3 {
        opacity: .5;
      }

      .cls-2, .cls-8, .cls-10 {
        stroke: #6d326a;
        stroke-linecap: round;
        stroke-linejoin: round;
        stroke-width: 1.19px;
      }

      .cls-11 {
        clip-path: url(#clippath-6);
      }

      .cls-12 {
        clip-path: url(#clippath-7);
      }

      .cls-13 {
        letter-spacing: 0em;
      }

      .cls-14 {
        clip-path: url(#clippath-1);
      }

      .cls-15 {
        clip-path: url(#clippath-4);
      }

      .cls-4 {
        opacity: .7;
      }

      .cls-16 {
        letter-spacing: 0em;
      }

      .cls-17 {
        clip-path: url(#clippath);
      }

      .cls-18 {
        clip-path: url(#clippath-3);
      }

      .cls-19 {
        clip-path: url(#clippath-8);
      }

      .cls-20 {
        letter-spacing: 0em;
      }

      .cls-21 {
        clip-path: url(#clippath-5);
      }

      .cls-10 {
        fill: none;
      }
    </style>
    <clipPath id="clippath">
      <path class="cls-7" d="m207.05,394.73c-12.42,5.68-27.1.22-32.79-12.2-5.68-12.42-.22-27.1,12.2-32.79,12.42-5.68,27.1-.22,32.79,12.2,5.68,12.42.22,27.1-12.2,32.79Z"/>
    </clipPath>
    <clipPath id="clippath-1">
      <path class="cls-2" d="m267.44,69.7s-4.14-6.14-9.85-9.82c-5.72-3.69-15.55-8.05-15.55-8.05l-3.24-18.02s5.37-5.09,8.29-9.8c2.92-4.71,1.95-7.87.13-11.13-1.83-3.26-4.46-1.14-4.85.34-.38,1.49-.52,4.75-.52,4.75,0,0-1.75-11.99-2.76-14.73-1.01-2.73-4.85-.11-4.51.81,0,0-1.16-3.4-3.56-3.45-2.4-.04-3.06,4.04-3.06,4.04,0,0-3.07-1.42-4.79.36-1.72,1.78-.9,6.24-.9,6.24,0,0-2.73,1.01-3.16,4.9-.43,3.89-.08,10.7,1.03,12.57,1.11,1.87,1.44,2.78,1.44,2.78-1.36,16.24-1.31,15.17-1.71,21.65-.28,4.56,2.71,15.16,7.04,19.57,4.33,4.41,19.64,12.2,19.64,12.2,0,0,15.97-4.15,20.9-15.2Z"/>
    </clipPath>
    <clipPath id="clippath-3">
      <path class="cls-2" d="m227.49,88.35s-4.47.47-5.88,1.68c-1.41,1.2-12.14,10.38-13.88,15.83s4.87,21.73,12.1,28.04c7.22,6.31,16.23,12.93,23.89,11.55,7.66-1.37,16.46-13.16,17.37-16.38.91-3.21-29.06-40.04-29.06-40.04,0,0-2.13-2.14-4.54-.68Z"/>
    </clipPath>
    <clipPath id="clippath-4">
      <path class="cls-2" d="m265.67,66.53s-4.74-1.6-11.8,1.4c-7.05,2.99-24.73,13.38-27.32,22.4-1.7,5.94,17.03,33.62,28.69,38.18,3.15,1.23,5.99,2.55,12.43-2.68,6.44-5.24,19.91-19.79,23.44-26.2,3.53-6.42-1.96-11.19-3.85-14.02-1.88-2.83-16.64-21.19-21.6-19.07Z"/>
    </clipPath>
    <clipPath id="clippath-5">
      <circle class="cls-2" cx="287.21" cy="66.22" r="26.5" transform="translate(47.57 237.83) rotate(-48.59)"/>
    </clipPath>
    <clipPath id="clippath-6">
      <path class="cls-2" d="m292.99,96.91s-10.29-2.77-14.34,4.96c-4.05,7.73.52,26.97.52,26.97,0,0-7.52,12.22-9.43,13.55-1.91,1.33-7.28.74-12.59,3.45-5.3,2.71-3.55,5.47-2.14,6.4,1.41.93,5.73-1.85,7.03-1.75,1.31.1,1.13,2.39-3.88,7.58-5,5.19-7.31,5.34-5.86,7.75,1.45,2.41,3.97,1.79,3.97,1.79,0,0-.66,2.08,1.4,3.07,2.06.98,2.94.23,2.94.23,0,0-.2,2.61,1.7,3.42,1.91.81,4.6.03,4.6.03,0,0,1.81,2.11,3.64,1.76,1.83-.35,6.01-5.44,9.3-9.78,3.29-4.34,15.99-19.77,21-29.23,5.01-9.46,2.63-19.01,1.61-24.83-1.02-5.83-5.63-14.07-9.47-15.35Z"/>
    </clipPath>
    <clipPath id="clippath-7">
      <path class="cls-2" d="m202.34,100.5s4.15,11.98,9.5,12.89c5.35.91,12.79-8.2,14.31-14.97,1.51-6.78-3.8-12.28-11.48-19.12-7.68-6.84-18.7-10.82-27.97-5.63-9.27,5.19-23.08,20.04-23.08,20.04,0,0-8.6-7.57-13.18-3.66-4.57,3.91,1.39,15.87,5.6,20.8,4.21,4.93,11.86,12.09,19.22,10.37,7.36-1.72,13.2-15.55,17.95-19.62,4.75-4.06,8.06-2.33,9.12-1.09Z"/>
    </clipPath>
    <clipPath id="clippath-8">
      <path class="cls-2" d="m226.41,143.01s12.17,3.58,16.01-.24c3.85-3.82,4.4-15.43-3.88-20.34-5.97-3.54-12.21-4.04-22.23-1.77-10.03,2.27-19.67,8.93-20.83,19.49-1.16,10.56,2.9,30.42,2.9,30.42,0,0-11.16,2.61-10.63,8.6.53,6,13.73,8.09,20.18,7.52,6.46-.57,16.73-2.63,19.61-9.62,2.87-6.99-4.99-19.78-5.54-26.01-.55-6.23,2.79-7.91,4.41-8.06Z"/>
    </clipPath>
  </defs>
  <g>
    <path class="cls-7" d="m4.16,234.84s-.48,70.81,56.64,119.44c57.12,48.64,138.68,54.06,204.65,60.2,65.96,6.14,118.22-30.09,128.09-86.59,9.86-56.5-40.02-74.41-64.93-139.64-24.91-65.22-21.64-86.38-78.11-127.52-56.47-41.15-148.18-19.05-198.41,47.75C1.86,175.29,4.16,234.84,4.16,234.84Z"/>
    <path class="cls-4" d="m4.16,234.84s-.48,70.81,56.64,119.44c57.12,48.64,138.68,54.06,204.65,60.2,65.96,6.14,118.22-30.09,128.09-86.59,9.86-56.5-40.02-74.41-64.93-139.64-24.91-65.22-21.64-86.38-78.11-127.52-56.47-41.15-148.18-19.05-198.41,47.75C1.86,175.29,4.16,234.84,4.16,234.84Z"/>
  </g>
  <g>
    <path class="cls-7" d="m341.93,226.15c-7.54-3.87-10.51-13.11-6.64-20.65,3.87-7.54,13.11-10.51,20.65-6.64,7.54,3.87,10.51,13.11,6.64,20.65-3.87,7.54-13.11,10.51-20.65,6.64Z"/>
    <g>
      <path class="cls-7" d="m356.66,204.27l7.44,10.44c.3-2.05.17-4.11-.34-6.08l-7.1-4.36Z"/>
      <path class="cls-7" d="m341.06,199.35l17.68,24.95c1.43-1.19,2.66-2.67,3.61-4.39l-14.83-22.68c-2.28.21-4.49.94-6.46,2.12Z"/>
      <path class="cls-7" d="m348.37,227.81l-7.68-11,4,10.42c1.22.35,2.45.53,3.68.58Z"/>
      <path class="cls-7" d="m354.61,226.74l-17.56-23.93c-.17.21-.33.44-.49.66l12.67,24.37c1.85-.04,3.67-.42,5.38-1.1Z"/>
    </g>
  </g>
  <g>
    <g>
      <path class="cls-7" d="m207.05,394.73c-12.42,5.68-27.1.22-32.79-12.2-5.68-12.42-.22-27.1,12.2-32.79,12.42-5.68,27.1-.22,32.79,12.2,5.68,12.42.22,27.1-12.2,32.79Z"/>
      <g class="cls-17">
        <g>
          <path class="cls-7" d="m219.06,382.92l-16.88-26.48,19.17,18.42c.06-.51.09-1.03.12-1.55l-22.72-25.74c-1.92-.16-3.87-.09-5.82.22l4.56,7.25-7.54-6.6s-.02,0-.02,0l5.98,10.86-12.13-8.14c-.3.19-.6.38-.89.58l22.51,24.98-17.86-13.59,6.35,10-9.25-6.4,24.23,27.05c3.02-1.69,5.57-3.94,7.57-6.56l-4.93-8.23,6.12,6.52c.53-.84,1.02-1.71,1.45-2.6Z"/>
          <path class="cls-7" d="m204.05,395.86l-19.35-22.32,8.6,13.27-21.2-16.62c-.34,4.09.33,8.32,2.16,12.32,3.68,8.03,11.11,13.15,19.27,14.23l-7.64-6.79,11.85,6.99c2.11-.08,4.23-.44,6.31-1.09Z"/>
          <path class="cls-7" d="m205.97,349.28l10.85,12.61-2.2-4.81,3.51,2.7c-2.85-4.9-7.18-8.5-12.16-10.5Z"/>
          <path class="cls-7" d="m180.75,368.78l-5.86-8.1c-1.21,2.29-2.05,4.75-2.5,7.3l8.36.8Z"/>
        </g>
      </g>
    </g>
    <path class="cls-5" d="m233.51,355.77c-1.8-3.94-9.77-4.48-20.38-2.08.67.59,1.3,1.22,1.91,1.89,7.92-1.81,13.57-1.66,14.73.89,2.06,4.51-10.79,14.81-28.7,23-17.91,8.2-34.11,11.19-36.17,6.68-1.06-2.32,1.84-6.18,7.35-10.5-.12-.88-.2-1.77-.22-2.65-7.69,6.01-11.78,11.84-10.09,15.52,2.86,6.24,21.19,3.97,40.95-5.07,19.76-9.04,33.47-21.43,30.61-27.67Z"/>
  </g>
  <g>
    <circle class="cls-7" cx="79.22" cy="136.65" r="24.43" transform="translate(-72.09 181.98) rotate(-76.57)"/>
    <g>
      <path class="cls-5" d="m84.98,118.58c1.74-1.6,3.65-2.74,5.59-3.55-1.96-1.03-4.07-1.81-6.3-2.28-2.15,1.45-4.34,3.12-6.44,5.03-8.74,7.94-6.35,7.15-19.06,11.91-1.23.46-2.35,1.01-3.37,1.61-.38,1.72-.6,3.5-.6,5.34,0,3.18.63,6.21,1.73,8.99,4.54-1.38,10.58-3.62,13.36-6.41,4.77-4.77,5.56-11.91,15.09-20.65Z"/>
      <path class="cls-5" d="m61.47,153.39c1.84,1.95,3.99,3.61,6.39,4.87,4.55-3.17,6.66-6.55,13.15-9.5,5.69-2.59,15.09-3.15,20.95-3.23,1.08-2.76,1.69-5.74,1.69-8.88,0-.42-.04-.83-.06-1.25-4.05.31-11.93,1.32-20.19,4.63-9.24,3.69-13.72,10.24-21.92,13.37Z"/>
      <path class="cls-5" d="m85.77,128.11c4.31,2.16,10.96,1.03,16.15-.44-.99-2.51-2.38-4.81-4.1-6.83-6.88,1.29-18.02,4.29-12.04,7.28Z"/>
    </g>
  </g>
  <g>
    <g>
      <path class="cls-7" d="m91.22,330.72l.5-.84c1.05,1.1,3.01,1.93,5.07,1.93,3.07,0,4.44-1.34,4.44-3.01,0-4.61-9.6-1.85-9.6-7.51,0-2.17,1.67-4.09,5.45-4.09,1.69,0,3.45.53,4.63,1.38l-.42.9c-1.27-.88-2.83-1.3-4.22-1.3-2.99,0-4.33,1.38-4.33,3.07,0,4.61,9.6,1.89,9.6,7.47,0,2.17-1.73,4.06-5.54,4.06-2.28,0-4.48-.86-5.6-2.09Z"/>
      <path class="cls-7" d="m115.48,327.22h-9.86c.11,2.72,2.11,4.57,4.85,4.57,1.45,0,2.79-.53,3.67-1.6l.64.73c-1.01,1.23-2.59,1.87-4.33,1.87-3.47,0-5.91-2.42-5.91-5.82s2.35-5.82,5.49-5.82,5.47,2.37,5.47,5.78c0,.09-.02.2-.02.31Zm-9.84-.86h8.79c-.15-2.48-1.95-4.26-4.39-4.26s-4.22,1.76-4.39,4.26Z"/>
      <path class="cls-7" d="m124.34,321.14v1.08c-.09,0-.18-.02-.26-.02-2.55,0-4.06,1.69-4.06,4.52v5.97h-1.1v-11.47h1.05v2.5c.7-1.67,2.22-2.59,4.37-2.59Z"/>
      <path class="cls-7" d="m137.1,321.23l-5.18,11.47h-1.12l-5.16-11.47h1.16l4.57,10.26,4.61-10.26h1.12Z"/>
      <path class="cls-7" d="m139.14,317.56c0-.48.4-.9.9-.9s.9.4.9.88-.4.9-.9.9-.9-.4-.9-.88Zm.35,3.67h1.1v11.47h-1.1v-11.47Z"/>
      <path class="cls-7" d="m143.97,326.96c0-3.43,2.44-5.82,5.8-5.82,1.82,0,3.4.7,4.35,2.11l-.81.59c-.83-1.16-2.11-1.71-3.54-1.71-2.7,0-4.68,1.93-4.68,4.83s1.98,4.83,4.68,4.83c1.43,0,2.7-.55,3.54-1.71l.81.59c-.94,1.38-2.53,2.11-4.35,2.11-3.36,0-5.8-2.42-5.8-5.82Z"/>
      <path class="cls-7" d="m166.9,327.22h-9.86c.11,2.72,2.11,4.57,4.85,4.57,1.45,0,2.79-.53,3.67-1.6l.64.73c-1.01,1.23-2.59,1.87-4.33,1.87-3.47,0-5.91-2.42-5.91-5.82s2.35-5.82,5.49-5.82,5.47,2.37,5.47,5.78c0,.09-.02.2-.02.31Zm-9.84-.86h8.79c-.15-2.48-1.96-4.26-4.39-4.26s-4.22,1.76-4.39,4.26Z"/>
      <path class="cls-7" d="m176.19,326.17v-8.85h1.12v8.81c0,3.84,1.84,5.64,5.05,5.64s5.03-1.8,5.03-5.64v-8.81h1.12v8.85c0,4.39-2.35,6.63-6.17,6.63s-6.15-2.24-6.15-6.63Z"/>
      <path class="cls-7" d="m203.65,325.99v6.7h-1.1v-6.61c0-2.59-1.38-3.95-3.71-3.95-2.7,0-4.35,1.74-4.35,4.46v6.11h-1.1v-11.47h1.05v2.48c.77-1.6,2.37-2.57,4.55-2.57,2.79,0,4.66,1.65,4.66,4.85Z"/>
      <path class="cls-7" d="m216.45,325.42v7.27h-1.05v-2.04c-.73,1.32-2.13,2.13-4.13,2.13-2.57,0-4.13-1.32-4.13-3.27,0-1.73,1.1-3.21,4.28-3.21h3.93v-.92c0-2.13-1.16-3.27-3.4-3.27-1.58,0-3.01.59-3.95,1.45l-.55-.79c1.14-1.01,2.81-1.62,4.59-1.62,2.83,0,4.41,1.45,4.41,4.28Zm-1.1,3.89v-2.15h-3.91c-2.37,0-3.21.99-3.21,2.31,0,1.49,1.16,2.42,3.18,2.42s3.27-.92,3.93-2.57Z"/>
      <path class="cls-7" d="m229.96,321.23l-5.18,11.47h-1.12l-5.16-11.47h1.16l4.57,10.26,4.61-10.26h1.12Z"/>
      <path class="cls-7" d="m240.29,325.42v7.27h-1.05v-2.04c-.73,1.32-2.13,2.13-4.13,2.13-2.57,0-4.13-1.32-4.13-3.27,0-1.73,1.1-3.21,4.28-3.21h3.93v-.92c0-2.13-1.16-3.27-3.4-3.27-1.58,0-3.01.59-3.95,1.45l-.55-.79c1.14-1.01,2.81-1.62,4.59-1.62,2.83,0,4.41,1.45,4.41,4.28Zm-1.1,3.89v-2.15h-3.91c-2.37,0-3.21.99-3.21,2.31,0,1.49,1.16,2.42,3.18,2.42s3.27-.92,3.93-2.57Z"/>
      <path class="cls-7" d="m244.46,317.56c0-.48.4-.9.9-.9s.9.4.9.88-.4.9-.9.9-.9-.4-.9-.88Zm.35,3.67h1.1v11.47h-1.1v-11.47Z"/>
      <path class="cls-7" d="m250.54,316.39h1.1v16.3h-1.1v-16.3Z"/>
      <path class="cls-7" d="m264.56,325.42v7.27h-1.05v-2.04c-.73,1.32-2.13,2.13-4.13,2.13-2.57,0-4.13-1.32-4.13-3.27,0-1.73,1.1-3.21,4.28-3.21h3.93v-.92c0-2.13-1.16-3.27-3.4-3.27-1.58,0-3.01.59-3.95,1.45l-.55-.79c1.14-1.01,2.81-1.62,4.59-1.62,2.83,0,4.41,1.45,4.41,4.28Zm-1.1,3.89v-2.15h-3.91c-2.37,0-3.21.99-3.21,2.31,0,1.49,1.16,2.42,3.18,2.42s3.27-.92,3.93-2.57Z"/>
      <path class="cls-7" d="m280.5,326.96c0,3.43-2.44,5.82-5.67,5.82-2.06,0-3.8-1.03-4.7-2.79v2.7h-1.05v-16.3h1.1v7.45c.92-1.71,2.64-2.7,4.66-2.7,3.23,0,5.67,2.37,5.67,5.82Zm-1.1,0c0-2.88-2-4.83-4.63-4.83s-4.61,1.96-4.61,4.83,1.98,4.83,4.61,4.83,4.63-1.95,4.63-4.83Z"/>
      <path class="cls-7" d="m283.91,316.39h1.1v16.3h-1.1v-16.3Z"/>
      <path class="cls-7" d="m299.33,327.22h-9.86c.11,2.72,2.11,4.57,4.85,4.57,1.45,0,2.79-.53,3.67-1.6l.64.73c-1.01,1.23-2.59,1.87-4.33,1.87-3.47,0-5.91-2.42-5.91-5.82s2.35-5.82,5.49-5.82,5.47,2.37,5.47,5.78c0,.09-.02.2-.02.31Zm-9.84-.86h8.79c-.15-2.48-1.95-4.26-4.39-4.26s-4.22,1.76-4.39,4.26Z"/>
    </g>
    <text class="cls-6" transform="translate(63.76 292.9)"><tspan class="cls-16" x="0" y="0">5</tspan><tspan class="cls-20" x="87.64" y="0">0</tspan><tspan class="cls-13" x="177.99" y="0">3</tspan></text>
  </g>
  <g>
    <g>
      <path class="cls-2" d="m270.52,45.2h0c-1.03-1.63-.54-3.78,1.09-4.81l5.66-3.57c1.63-1.03,3.78-.54,4.81,1.09h0c1.03,1.63.54,3.78-1.09,4.81l-5.66,3.57c-1.63,1.03-3.78.54-4.81-1.09Z"/>
      <g>
        <g>
          <path class="cls-1" d="m267.44,69.7s-4.14-6.14-9.85-9.82c-5.72-3.69-15.55-8.05-15.55-8.05l-3.24-18.02s5.37-5.09,8.29-9.8c2.92-4.71,1.95-7.87.13-11.13-1.83-3.26-4.46-1.14-4.85.34-.38,1.49-.52,4.75-.52,4.75,0,0-1.75-11.99-2.76-14.73-1.01-2.73-4.85-.11-4.51.81,0,0-1.16-3.4-3.56-3.45-2.4-.04-3.06,4.04-3.06,4.04,0,0-3.07-1.42-4.79.36-1.72,1.78-.9,6.24-.9,6.24,0,0-2.73,1.01-3.16,4.9-.43,3.89-.08,10.7,1.03,12.57,1.11,1.87,1.44,2.78,1.44,2.78-1.36,16.24-1.31,15.17-1.71,21.65-.28,4.56,2.71,15.16,7.04,19.57,4.33,4.41,19.64,12.2,19.64,12.2,0,0,15.97-4.15,20.9-15.2Z"/>
          <g class="cls-14">
            <path class="cls-7" d="m246.54,84.9s15.97-4.15,20.9-15.2c0,0-.32-.47-.89-1.21l-4.16-3.47s-8.78.65-17.56,2.6c-8.78,1.95-15.61-2.28-18.21-12.03-2.6-9.76-5.04-24.11-5.04-24.11h0c-1.36,16.24-1.31,15.17-1.71,21.65-.28,4.56,2.71,15.16,7.04,19.57,4.33,4.41,19.64,12.2,19.64,12.2Z"/>
            <path class="cls-3" d="m246.54,84.9s15.97-4.15,20.9-15.2c0,0-.32-.47-.89-1.21l-4.16-3.47s-8.78.65-17.56,2.6c-8.78,1.95-15.61-2.28-18.21-12.03-2.6-9.76-5.04-24.11-5.04-24.11h0c-1.36,16.24-1.31,15.17-1.71,21.65-.28,4.56,2.71,15.16,7.04,19.57,4.33,4.41,19.64,12.2,19.64,12.2Z"/>
          </g>
          <path class="cls-10" d="m267.44,69.7s-4.14-6.14-9.85-9.82c-5.72-3.69-15.55-8.05-15.55-8.05l-3.24-18.02s5.37-5.09,8.29-9.8c2.92-4.71,1.95-7.87.13-11.13-1.83-3.26-4.46-1.14-4.85.34-.38,1.49-.52,4.75-.52,4.75,0,0-1.75-11.99-2.76-14.73-1.01-2.73-4.85-.11-4.51.81,0,0-1.16-3.4-3.56-3.45-2.4-.04-3.06,4.04-3.06,4.04,0,0-3.07-1.42-4.79.36-1.72,1.78-.9,6.24-.9,6.24,0,0-2.73,1.01-3.16,4.9-.43,3.89-.08,10.7,1.03,12.57,1.11,1.87,1.44,2.78,1.44,2.78-1.36,16.24-1.31,15.17-1.71,21.65-.28,4.56,2.71,15.16,7.04,19.57,4.33,4.41,19.64,12.2,19.64,12.2,0,0,15.97-4.15,20.9-15.2Z"/>
        </g>
        <path class="cls-2" d="m240.78,44.83l-1.98-11.03s5.37-5.09,8.29-9.8c2.92-4.71,1.95-7.87.13-11.13-1.83-3.26-4.46-1.14-4.85.34-.38,1.49-.52,4.75-.52,4.75,0,0-1.75-11.99-2.76-14.73-1.01-2.73-4.85-.11-4.51.81,0,0-1.16-3.4-3.56-3.45s-3.06,4.04-3.06,4.04c0,0-3.07-1.42-4.79.36-1.72,1.78-.9,6.24-.9,6.24,0,0-2.73,1.01-3.16,4.9-.43,3.89-.08,10.7,1.03,12.57,1.11,1.87,1.44,2.78,1.44,2.78-.6,7.18-.92,10.97-1.13,13.53l20.34-.18Z"/>
        <path class="cls-2" d="m224.82,69.96c.39.62.79,1.21,1.21,1.74,4.22-3.52,13.72-11.99,17.96-19.27-1.2-.38-1.96-.59-1.96-.59,0,0-8.84,11.55-17.21,18.13Z"/>
        <g>
          <path class="cls-10" d="m241.84,17.97s-9.46-.35-10.45,7.62"/>
          <line class="cls-10" x1="234.57" y1="4.05" x2="234.89" y2="14.09"/>
          <line class="cls-10" x1="227.95" y1="4.63" x2="228.6" y2="13.72"/>
          <line class="cls-10" x1="222.26" y1="11.23" x2="223.28" y2="16.9"/>
          <path class="cls-10" d="m236.79,13.62s-10.67,1.77-14.78,5.29"/>
        </g>
        <g>
          <path class="cls-7" d="m234.31,76.65c3.48-2.98,3.21-9.02-.62-13.49-3.7-4.32-9.34-5.59-12.86-2.98,1.19,4.6,3.37,9.76,6.07,12.51,1.33,1.35,3.69,3.03,6.33,4.7.38-.21.74-.45,1.08-.74Z"/>
          <path class="cls-10" d="m234.31,76.65c3.48-2.98,3.21-9.02-.62-13.49-3.7-4.32-9.34-5.59-12.86-2.98,1.19,4.6,3.37,9.76,6.07,12.51,1.33,1.35,3.69,3.03,6.33,4.7.38-.21.74-.45,1.08-.74Z"/>
        </g>
      </g>
      <g>
        <path class="cls-1" d="m227.49,88.35s-4.47.47-5.88,1.68c-1.41,1.2-12.14,10.38-13.88,15.83s4.87,21.73,12.1,28.04c7.22,6.31,16.23,12.93,23.89,11.55,7.66-1.37,16.46-13.16,17.37-16.38.91-3.21-29.06-40.04-29.06-40.04,0,0-2.13-2.14-4.54-.68Z"/>
        <g class="cls-18">
          <path class="cls-7" d="m227.49,88.35s-.87.09-1.97.3l1.04,1.69s-.92,9.49,5.58,20.22c6.5,10.73,17.89,17.56,17.56,21.47-.33,3.9.98,9.11-8.78,8.46-9.76-.65-20.16-17.24-23.74-25.37-1.86-4.23-3.46-10.65-5.29-15.62-1.94,2.25-3.57,4.52-4.16,6.36-1.74,5.45,4.87,21.73,12.1,28.04,7.22,6.31,16.23,12.93,23.89,11.55,7.66-1.37,16.46-13.16,17.37-16.38.91-3.21-29.06-40.04-29.06-40.04,0,0-2.13-2.14-4.54-.68Z"/>
          <path class="cls-3" d="m227.49,88.35s-.87.09-1.97.3l1.04,1.69s-.92,9.49,5.58,20.22c6.5,10.73,17.89,17.56,17.56,21.47-.33,3.9.98,9.11-8.78,8.46-9.76-.65-20.16-17.24-23.74-25.37-1.86-4.23-3.46-10.65-5.29-15.62-1.94,2.25-3.57,4.52-4.16,6.36-1.74,5.45,4.87,21.73,12.1,28.04,7.22,6.31,16.23,12.93,23.89,11.55,7.66-1.37,16.46-13.16,17.37-16.38.91-3.21-29.06-40.04-29.06-40.04,0,0-2.13-2.14-4.54-.68Z"/>
        </g>
        <path class="cls-10" d="m227.49,88.35s-4.47.47-5.88,1.68c-1.41,1.2-12.14,10.38-13.88,15.83s4.87,21.73,12.1,28.04c7.22,6.31,16.23,12.93,23.89,11.55,7.66-1.37,16.46-13.16,17.37-16.38.91-3.21-29.06-40.04-29.06-40.04,0,0-2.13-2.14-4.54-.68Z"/>
      </g>
      <g>
        <g>
          <path class="cls-1" d="m265.67,66.53s-4.74-1.6-11.8,1.4c-7.05,2.99-24.73,13.38-27.32,22.4-1.7,5.94,17.03,33.62,28.69,38.18,3.15,1.23,5.99,2.55,12.43-2.68,6.44-5.24,19.91-19.79,23.44-26.2,3.53-6.42-1.96-11.19-3.85-14.02-1.88-2.83-16.64-21.19-21.6-19.07Z"/>
          <g class="cls-15">
            <g>
              <path class="cls-7" d="m291.16,99.53l-12.19,3.86s-12.68,14.96-17.24,18.86-18.86-5.53-23.74-10.08c-.52-.49-1-.93-1.44-1.34,5.82,7.91,13.08,15.48,18.7,17.67,3.15,1.23,5.99,2.55,12.43-2.69,6.44-5.24,19.91-19.79,23.44-26.2.02-.03.03-.06.04-.09Z"/>
              <path class="cls-7" d="m284.83,98.19l6.56.86c2.91-6.13-2.29-10.7-4.12-13.45-1.88-2.83-16.64-21.19-21.6-19.07,0,0-1.02-.34-2.79-.41-6,4.52-5.32,9.72.16,19.06,5.53,9.43,21.79,13.01,21.79,13.01Z"/>
            </g>
            <g class="cls-9">
              <path class="cls-1" d="m291.16,99.53l-12.19,3.86s-12.68,14.96-17.24,18.86-18.86-5.53-23.74-10.08c-.52-.49-1-.93-1.44-1.34,5.82,7.91,13.08,15.48,18.7,17.67,3.15,1.23,5.99,2.55,12.43-2.69,6.44-5.24,19.91-19.79,23.44-26.2.02-.03.03-.06.04-.09Z"/>
              <path class="cls-1" d="m284.83,98.19l6.56.86c2.91-6.13-2.29-10.7-4.12-13.45-1.88-2.83-16.64-21.19-21.6-19.07,0,0-1.02-.34-2.79-.41-6,4.52-5.32,9.72.16,19.06,5.53,9.43,21.79,13.01,21.79,13.01Z"/>
            </g>
          </g>
          <path class="cls-10" d="m265.67,66.53s-4.74-1.6-11.8,1.4c-7.05,2.99-24.73,13.38-27.32,22.4-1.7,5.94,17.03,33.62,28.69,38.18,3.15,1.23,5.99,2.55,12.43-2.68,6.44-5.24,19.91-19.79,23.44-26.2,3.53-6.42-1.96-11.19-3.85-14.02-1.88-2.83-16.64-21.19-21.6-19.07Z"/>
        </g>
        <g>
          <rect class="cls-2" x="237.58" y="79.97" width="32.36" height="27.62" rx="5.89" ry="5.89" transform="translate(180.07 -166.53) rotate(53.91)"/>
          <path class="cls-2" d="m424.8,192.64c-14.95-39.03-52.34-38.57-85.34-38.16-11.37.14-22.12.28-32.02-.98-33.37-4.22-42.91-38.52-43.03-38.97-.33-1.27-1.63-2.03-2.91-1.7-1.27.34-2.03,1.64-1.7,2.91.1.38,10.39,37.85,47.04,42.48,10.24,1.3,21.64,1.15,32.68,1.02,32.96-.41,67.06-.83,80.83,35.1,6.33,16.52,2.81,35.94-8.95,49.48-10.25,11.79-24.77,16.57-39.85,13.11-14.23-3.27-28.29-7.77-41.89-12.12-22.5-7.2-45.78-14.65-70.48-16.72-42.34-3.56-71.81,17.07-105.89,40.95-6.86,4.8-13.95,9.77-21.38,14.71l-4.23,2.82c-21.08,14.08-42.89,28.64-67.56,31.27-19.18,2.05-38.69-6.94-48.55-22.36-5.61-8.77-7.54-19.25-5.3-28.75,2.05-8.67,7.26-15.7,15.06-20.35,12.77-7.61,35.33-10.13,54.57-8.05l.33-4.75c-20.19-2.15-43.76.61-57.34,8.71-8.81,5.25-14.94,13.54-17.26,23.35-2.54,10.75-.38,22.57,5.92,32.42,9.9,15.48,27.81,24.83,46.82,24.85,2.07,0,4.16-.1,6.25-.33,25.84-2.75,49.14-18.32,69.7-32.04l4.22-2.81c7.48-4.97,14.6-9.96,21.48-14.78,33.33-23.35,62.11-43.52,102.76-40.1,24.16,2.03,47.17,9.39,69.42,16.51,13.69,4.38,27.85,8.91,42.28,12.22,16.85,3.86,33.08-1.46,44.52-14.63,12.9-14.85,16.75-36.17,9.8-54.31Z"/>
          <path class="cls-8" d="m258.68,83.48c0,1.79-1.45,3.25-3.25,3.25s-3.25-1.45-3.25-3.25,1.45-3.25,3.25-3.25,3.25,1.45,3.25,3.25Z"/>
          <path class="cls-8" d="m249.86,90.9c0,1.79-1.45,3.25-3.25,3.25s-3.25-1.45-3.25-3.25,1.45-3.25,3.25-3.25,3.25,1.45,3.25,3.25Z"/>
        </g>
      </g>
      <g>
        <circle class="cls-1" cx="287.21" cy="66.22" r="26.5" transform="translate(47.57 237.83) rotate(-48.59)"/>
        <g class="cls-21">
          <path class="cls-7" d="m307.35,49c-.93-1.09-1.95-2.06-3.01-2.96,2.71,9.64-.15,20.4-8.26,27.33-10.03,8.58-24.61,8.33-34.36.04,1.01,3.58,2.76,7.02,5.34,10.03,9.51,11.12,26.24,12.43,37.36,2.92,11.12-9.51,12.43-26.24,2.92-37.36Z"/>
          <path class="cls-3" d="m307.35,49c-.93-1.09-1.95-2.06-3.01-2.96,2.71,9.64-.15,20.4-8.26,27.33-10.03,8.58-24.61,8.33-34.36.04,1.01,3.58,2.76,7.02,5.34,10.03,9.51,11.12,26.24,12.43,37.36,2.92,11.12-9.51,12.43-26.24,2.92-37.36Z"/>
        </g>
        <circle class="cls-10" cx="287.21" cy="66.22" r="26.5" transform="translate(47.57 237.83) rotate(-48.59)"/>
      </g>
      <g>
        <line class="cls-10" x1="310.75" y1="84.55" x2="318.46" y2="77.95"/>
        <path class="cls-7" d="m320.51,78.78c.86-.73.96-2.02.22-2.88-.73-.86-2.02-.96-2.88-.22-.86.73-.96,2.02-.22,2.88.73.86,2.02.96,2.88.22Z"/>
      </g>
      <path class="cls-2" d="m301.28,92.55h0c-1.25-1.46-1.08-3.66.38-4.92l5.09-4.35c1.46-1.25,3.66-1.08,4.92.38h0c1.25,1.46,1.08,3.66-.38,4.92l-5.09,4.35c-1.46,1.25-3.66,1.08-4.92-.38Z"/>
      <g>
        <g>
          <path class="cls-1" d="m292.99,96.91s-10.29-2.77-14.34,4.96c-4.05,7.73.52,26.97.52,26.97,0,0-7.52,12.22-9.43,13.55-1.91,1.33-7.28.74-12.59,3.45-5.3,2.71-3.55,5.47-2.14,6.4,1.41.93,5.73-1.85,7.03-1.75,1.31.1,1.13,2.39-3.88,7.58-5,5.19-7.31,5.34-5.86,7.75,1.45,2.41,3.97,1.79,3.97,1.79,0,0-.66,2.08,1.4,3.07,2.06.98,2.94.23,2.94.23,0,0-.2,2.61,1.7,3.42,1.91.81,4.6.03,4.6.03,0,0,1.81,2.11,3.64,1.76,1.83-.35,6.01-5.44,9.3-9.78,3.29-4.34,15.99-19.77,21-29.23,5.01-9.46,2.63-19.01,1.61-24.83-1.02-5.83-5.63-14.07-9.47-15.35Z"/>
          <g class="cls-11">
            <path class="cls-7" d="m302.47,112.27c-1.02-5.83-5.63-14.07-9.47-15.35,0,0-.1-.02-.24-.06,1.33,2.96,5.19,12.91,4.11,26.71-1.3,16.59-16.51,29.66-21.14,34.48-3.71,3.86-8.38,9.27-15.11,13.27.03.76.26,2.4,1.71,3.01,1.91.81,4.6.03,4.6.03,0,0,1.81,2.11,3.64,1.76,1.83-.35,6.01-5.44,9.3-9.78,3.29-4.34,15.99-19.77,21-29.23,5.01-9.46,2.63-19.01,1.61-24.83Z"/>
            <path class="cls-3" d="m302.47,112.27c-1.02-5.83-5.63-14.07-9.47-15.35,0,0-.1-.02-.24-.06,1.33,2.96,5.19,12.91,4.11,26.71-1.3,16.59-16.51,29.66-21.14,34.48-3.71,3.86-8.38,9.27-15.11,13.27.03.76.26,2.4,1.71,3.01,1.91.81,4.6.03,4.6.03,0,0,1.81,2.11,3.64,1.76,1.83-.35,6.01-5.44,9.3-9.78,3.29-4.34,15.99-19.77,21-29.23,5.01-9.46,2.63-19.01,1.61-24.83Z"/>
          </g>
          <path class="cls-10" d="m292.99,96.91s-10.29-2.77-14.34,4.96c-4.05,7.73.52,26.97.52,26.97,0,0-7.52,12.22-9.43,13.55-1.91,1.33-7.28.74-12.59,3.45-5.3,2.71-3.55,5.47-2.14,6.4,1.41.93,5.73-1.85,7.03-1.75,1.31.1,1.13,2.39-3.88,7.58-5,5.19-7.31,5.34-5.86,7.75,1.45,2.41,3.97,1.79,3.97,1.79,0,0-.66,2.08,1.4,3.07,2.06.98,2.94.23,2.94.23,0,0-.2,2.61,1.7,3.42,1.91.81,4.6.03,4.6.03,0,0,1.81,2.11,3.64,1.76,1.83-.35,6.01-5.44,9.3-9.78,3.29-4.34,15.99-19.77,21-29.23,5.01-9.46,2.63-19.01,1.61-24.83-1.02-5.83-5.63-14.07-9.47-15.35Z"/>
        </g>
        <g>
          <path class="cls-10" d="m270.55,176.11c1.83-.35,6.01-5.44,9.3-9.78,1.86-2.46,6.74-8.47,11.53-14.94-3.21-11.04-12.71-14.29-16.94-15.2-1.91,2.86-3.87,5.6-4.71,6.19-1.91,1.33-7.28.74-12.59,3.45-5.3,2.71-3.55,5.47-2.14,6.4,1.41.93,5.73-1.85,7.03-1.75,1.31.1,1.13,2.39-3.88,7.58-5,5.19-7.31,5.34-5.86,7.75,1.45,2.41,3.97,1.79,3.97,1.79,0,0-.66,2.08,1.4,3.07,2.06.98,2.94.23,2.94.23,0,0-.2,2.61,1.7,3.42,1.91.81,4.6.03,4.6.03,0,0,1.81,2.11,3.64,1.76Z"/>
          <path class="cls-10" d="m256.27,167.61s5.8-2.83,9.98-7.92"/>
          <path class="cls-10" d="m260.61,170.9s5.95-2.65,10.48-8.05"/>
          <path class="cls-10" d="m266.91,174.35s5.76-4.31,8.5-7.88"/>
        </g>
        <path class="cls-2" d="m302.93,131.86c.21-.76.37-1.52.51-2.28-8.38-5.59-18.94-3.76-24.58-2.13.18.87.3,1.38.3,1.38,0,0-.33.54-.87,1.4,13.47-3.25,20.88-.85,24.64,1.62Z"/>
        <path class="cls-8" d="m297.09,136.97c.77.9,1.66,1.62,2.62,2.17.41-.71.8-1.39,1.15-2.04,3-5.67,3.35-11.37,2.92-16.29-2.06.1-4.09.84-5.77,2.27-4.08,3.49-4.49,9.71-.92,13.89Z"/>
      </g>
      <g>
        <g>
          <path class="cls-1" d="m202.34,100.5s4.15,11.98,9.5,12.89c5.35.91,12.79-8.2,14.31-14.97,1.51-6.78-3.8-12.28-11.48-19.12-7.68-6.84-18.7-10.82-27.97-5.63-9.27,5.19-23.08,20.04-23.08,20.04,0,0-8.6-7.57-13.18-3.66-4.57,3.91,1.39,15.87,5.6,20.8,4.21,4.93,11.86,12.09,19.22,10.37,7.36-1.72,13.2-15.55,17.95-19.62,4.75-4.06,8.06-2.33,9.12-1.09Z"/>
          <g class="cls-12">
            <path class="cls-7" d="m214.25,103.4c-8.13-3.9-5.85-13.66-13.99-16.26-8.13-2.6-7.48,2.93-13.99,13.33-6.5,10.41-18.54,9.76-26.67,7.16-2.75-.88-5.35-1.91-7.59-2.89,1.27,2.41,2.73,4.59,4.03,6.11,4.21,4.93,11.86,12.09,19.22,10.37,7.36-1.72,13.2-15.55,17.95-19.62,4.75-4.06,8.06-2.33,9.12-1.09,0,0,4.15,11.98,9.5,12.89,5.35.91,12.79-8.2,14.31-14.97.26-1.17.31-2.29.18-3.4l-.38-.08s-3.58,12.36-11.71,8.46Z"/>
            <path class="cls-3" d="m214.25,103.4c-8.13-3.9-5.85-13.66-13.99-16.26-8.13-2.6-7.48,2.93-13.99,13.33-6.5,10.41-18.54,9.76-26.67,7.16-2.75-.88-5.35-1.91-7.59-2.89,1.27,2.41,2.73,4.59,4.03,6.11,4.21,4.93,11.86,12.09,19.22,10.37,7.36-1.72,13.2-15.55,17.95-19.62,4.75-4.06,8.06-2.33,9.12-1.09,0,0,4.15,11.98,9.5,12.89,5.35.91,12.79-8.2,14.31-14.97.26-1.17.31-2.29.18-3.4l-.38-.08s-3.58,12.36-11.71,8.46Z"/>
          </g>
          <path class="cls-10" d="m202.34,100.5s4.15,11.98,9.5,12.89c5.35.91,12.79-8.2,14.31-14.97,1.51-6.78-3.8-12.28-11.48-19.12-7.68-6.84-18.7-10.82-27.97-5.63-9.27,5.19-23.08,20.04-23.08,20.04,0,0-8.6-7.57-13.18-3.66-4.57,3.91,1.39,15.87,5.6,20.8,4.21,4.93,11.86,12.09,19.22,10.37,7.36-1.72,13.2-15.55,17.95-19.62,4.75-4.06,8.06-2.33,9.12-1.09Z"/>
        </g>
        <path class="cls-10" d="m176.11,81.6c-6.64,5.82-12.48,12.11-12.48,12.11,0,0-8.6-7.57-13.18-3.66-4.57,3.91,1.39,15.87,5.6,20.8,4.21,4.93,11.86,12.09,19.22,10.37,6.64-1.55,12.04-12.95,16.52-18.15-8.17-8.14-13.29-16.86-15.68-21.47Z"/>
        <path class="cls-10" d="m198.23,71.44c-.82-.09-1.64-.15-2.46-.15,1.2,4.15,3.44,14.27,1.64,27.96.93-.23,1.75-.24,2.45-.1.6-7.08,1.01-18.83-1.64-27.71Z"/>
        <path class="cls-8" d="m203.89,87c-3.69,3.16-9.25,2.72-12.4-.97s-2.72-9.25.97-12.4c3.69-3.16,9.25-2.72,12.4.97,3.16,3.69,2.72,9.25-.97,12.4Z"/>
        <path class="cls-10" d="m175.27,121.22c1.63-.38,3.18-1.36,4.66-2.68-4.71.78-13.41.53-21.32-8.96-7.7-9.24-7.84-16.44-7.07-20.21-.38.17-.75.39-1.09.69-4.57,3.91,1.39,15.87,5.6,20.8,4.21,4.93,11.86,12.09,19.22,10.37Z"/>
      </g>
      <g>
        <g>
          <path class="cls-1" d="m226.41,143.01s12.17,3.58,16.01-.24c3.85-3.82,4.4-15.43-3.88-20.34-5.97-3.54-12.21-4.04-22.23-1.77-10.03,2.27-19.67,8.93-20.83,19.49-1.16,10.56,2.9,30.42,2.9,30.42,0,0-11.16,2.61-10.63,8.6.53,6,13.73,8.09,20.18,7.52,6.46-.57,16.73-2.63,19.61-9.62,2.87-6.99-4.99-19.78-5.54-26.01-.55-6.23,2.79-7.91,4.41-8.06Z"/>
          <g class="cls-19">
            <path class="cls-7" d="m226.41,143.01s12.17,3.58,16.01-.24c2.5-2.49,3.59-8.26,1.78-13.35h-.04s.98,5.2-6.18,6.5c-7.16,1.3-18.86-1.3-24.07,5.2-5.2,6.5,2.28,19.84,2.93,28.62.65,8.78-1.3,11.71-10.08,12.68-8.64.96-16.63-5.29-18.44-1.48,2.68,4.63,13.83,6.25,19.6,5.74,6.46-.57,16.73-2.63,19.61-9.62,2.87-6.99-4.99-19.78-5.54-26.01-.55-6.23,2.79-7.91,4.41-8.06Z"/>
            <path class="cls-3" d="m226.41,143.01s12.17,3.58,16.01-.24c2.5-2.49,3.59-8.26,1.78-13.35h-.04s.98,5.2-6.18,6.5c-7.16,1.3-18.86-1.3-24.07,5.2-5.2,6.5,2.28,19.84,2.93,28.62.65,8.78-1.3,11.71-10.08,12.68-8.64.96-16.63-5.29-18.44-1.48,2.68,4.63,13.83,6.25,19.6,5.74,6.46-.57,16.73-2.63,19.61-9.62,2.87-6.99-4.99-19.78-5.54-26.01-.55-6.23,2.79-7.91,4.41-8.06Z"/>
          </g>
          <path class="cls-10" d="m226.41,143.01s12.17,3.58,16.01-.24c3.85-3.82,4.4-15.43-3.88-20.34-5.97-3.54-12.21-4.04-22.23-1.77-10.03,2.27-19.67,8.93-20.83,19.49-1.16,10.56,2.9,30.42,2.9,30.42,0,0-11.16,2.61-10.63,8.6.53,6,13.73,8.09,20.18,7.52,6.46-.57,16.73-2.63,19.61-9.62,2.87-6.99-4.99-19.78-5.54-26.01-.55-6.23,2.79-7.91,4.41-8.06Z"/>
        </g>
        <path class="cls-10" d="m195.78,153.38c.88,8.78,2.6,17.19,2.6,17.19,0,0-11.16,2.61-10.63,8.6.53,6,13.73,8.09,20.18,7.52,6.46-.57,16.73-2.63,19.61-9.62,2.59-6.3-3.54-17.32-5.18-23.99-11.37,1.92-21.44,1.03-26.58.29Z"/>
        <path class="cls-10" d="m200.37,129.48c-.55.61-1.07,1.24-1.54,1.91,4.07,1.43,13.61,5.49,23.71,14.91.35-.89.82-1.56,1.34-2.06-5.41-4.6-14.74-11.76-23.51-14.77Z"/>
        <path class="cls-8" d="m216.32,133.9c.42,4.84-3.15,9.11-7.99,9.53-4.84.42-9.11-3.15-9.53-7.99-.42-4.84,3.15-9.11,7.99-9.53,4.84-.42,9.11,3.15,9.53,7.99Z"/>
        <path class="cls-10" d="m227.54,177.07c.63-1.54.74-3.37.52-5.35-2.1,4.29-7.36,11.22-19.68,12.15-12,.9-17.93-3.17-20.56-5.99-.08.41-.12.84-.08,1.29.53,6,13.73,8.09,20.18,7.52,6.46-.57,16.73-2.63,19.61-9.62Z"/>
      </g>
      <g>
        <path class="cls-8" d="m296.15,55.07c-2.74-3.6-5.13-7.27-7.17-10.91-6.15-.82-12.6.87-17.69,5.22-9.48,8.11-10.6,22.37-2.49,31.86,8.11,9.48,22.37,10.6,31.86,2.49,4.72-4.04,7.37-9.6,7.83-15.34-4.27-3.73-8.46-8.21-12.34-13.31Z"/>
        <path class="cls-1" d="m298.34,75.59c-2.85,2.43-7.26,1.94-9.86-1.1s-2.4-7.48.45-9.91c2.85-2.43,7.26-1.94,9.86,1.1,2.6,3.04,2.4,7.48-.45,9.91Z"/>
        <path class="cls-1" d="m290.91,58.83c-.91.77-2.27.67-3.04-.24s-.67-2.27.24-3.04c.91-.77,2.27-.67,3.04.24.77.91.67,2.27-.24,3.04Z"/>
      </g>
    </g>
    <rect class="cls-7" x="70.44" y="230.96" width="6.45" height="9.32" transform="translate(23.44 -6.08) rotate(5.62)"/>
  </g>
</svg>